<?xml version="1.0" standalone="no"?>
<!DOCTYPE svg PUBLIC "-//W3C//DTD SVG 20010904//EN"
 "http://www.w3.org/TR/2001/REC-SVG-20010904/DTD/svg10.dtd">
<svg version="1.0" xmlns="http://www.w3.org/2000/svg"
 width="300.000000pt" height="168.000000pt" viewBox="0 0 300.000000 168.000000"
 preserveAspectRatio="xMidYMid meet">

<g transform="translate(0.000000,168.000000) scale(0.100000,-0.100000)"
fill="#000000" stroke="none">
<path d="M1619 1620 c-70 -9 -135 -39 -176 -82 -39 -41 -137 -210 -151 -260
-7 -25 -7 -50 -1 -72 10 -37 419 -767 479 -856 125 -184 277 -267 528 -290 99
-9 132 -6 132 10 0 4 -120 221 -267 481 -146 261 -286 515 -309 564 -46 96
-84 233 -84 301 0 52 24 134 50 167 11 14 20 30 20 36 0 12 -129 13 -221 1z"/>
<path d="M1137 1033 c-100 -168 -546 -921 -557 -942 -17 -33 1 -42 75 -35 179
16 302 56 414 134 110 78 191 195 227 327 22 85 20 249 -6 348 -25 99 -84 225
-104 225 -8 0 -30 -26 -49 -57z"/>
</g>
</svg>
