<?xml version="1.0" encoding="UTF-8"?>
<svg version="1.1" xmlns="http://www.w3.org/2000/svg" width="549" height="92">
<path d="M0 0 C181.17 0 362.34 0 549 0 C549 30.36 549 60.72 549 92 C367.83 92 186.66 92 0 92 C0 61.64 0 31.28 0 0 Z " fill="#5F4969" transform="translate(0,0)"/>
<path d="M0 0 C181.17 0 362.34 0 549 0 C549 8.25 549 16.5 549 25 C367.83 25 186.66 25 0 25 C0 16.75 0 8.5 0 0 Z " fill="#6E6662" transform="translate(0,67)"/>
<path d="M0 0 C93.39 0 186.78 0 283 0 C283 0.33 283 0.66 283 1 C370.78 1.33 458.56 1.66 549 2 C549 8.27 549 14.54 549 21 C504.64998716 21.11293484 460.29997108 21.2245057 415.94993591 21.32835388 C415.28897901 21.32990168 414.62802211 21.33144947 413.9470362 21.33304417 C399.56769421 21.36670826 385.18835162 21.40011148 370.80900839 21.4332476 C363.75296186 21.44950931 356.69691547 21.46582841 349.64086914 21.48217773 C348.58786957 21.48461614 348.58786957 21.48461614 347.51359729 21.4871038 C324.93698143 21.53941058 302.36037689 21.59547443 279.78377527 21.65357857 C256.49899609 21.71348478 233.21421044 21.76941754 209.92941049 21.82065109 C196.24344817 21.85077162 182.55749681 21.88270746 168.87155342 21.92053413 C112.57061923 22.0751009 56.29264989 22.06888558 0 21 C0 14.07 0 7.14 0 0 Z " fill="#5B4569" transform="translate(0,46)"/>
<path d="M0 0 C181.17 0 362.34 0 549 0 C549 4.95 549 9.9 549 15 C367.83 15 186.66 15 0 15 C0 10.05 0 5.1 0 0 Z " fill="#614E69" transform="translate(0,0)"/>
<path d="M0 0 C93.39 0 186.78 0 283 0 C283 0.33 283 0.66 283 1 C370.78 1.33 458.56 1.66 549 2 C549 4.97 549 7.94 549 11 C472.16895766 11.76708037 395.34451449 12.15658725 300.4403201 12.12946078 C289.17537909 12.12501494 277.91044863 12.12580225 266.64550781 12.13037109 C189.83722722 12.16070468 113.03595545 11.90257239 0 11 C0 7.37 0 3.74 0 0 Z " fill="#4B394E" transform="translate(0,46)"/>
<path d="M0 0 C181.17 0 362.34 0 549 0 C549 2.31 549 4.62 549 7 C367.83 7 186.66 7 0 7 C0 4.69 0 2.38 0 0 Z " fill="#644F6F" transform="translate(0,15)"/>
<path d="M0 0 C181.17 0 362.34 0 549 0 C549 1.65 549 3.3 549 5 C367.83 5 186.66 5 0 5 C0 3.35 0 1.7 0 0 Z " fill="#999491" transform="translate(0,87)"/>
<path d="M0 0 C181.17 0 362.34 0 549 0 C549 1.65 549 3.3 549 5 C419.31 5 289.62 5 156 5 C156 4.67 156 4.34 156 4 C104.52 3.67 53.04 3.34 0 3 C0 2.01 0 1.02 0 0 Z " fill="#7C628E" transform="translate(0,43)"/>
<path d="M0 0 C181.17 0 362.34 0 549 0 C549 1.32 549 2.64 549 4 C367.83 4 186.66 4 0 4 C0 2.68 0 1.36 0 0 Z " fill="#7F7975" transform="translate(0,83)"/>
<path d="M0 0 C181.17 0 362.34 0 549 0 C549 0.99 549 1.98 549 3 C531.78521003 3.13577522 514.57038612 3.26605031 497.35551548 3.39115143 C489.3469362 3.44945552 481.33837241 3.50906615 473.32983398 3.57275391 C383.94370669 4.28092164 294.55688505 4.06011905 152.14548403 3.55461836 C140.51927455 3.5112288 128.89306151 3.46890388 117.2668457 3.42724609 C116.43329174 3.4242591 115.59973777 3.4212721 114.74092459 3.41819459 C110.55410974 3.40319662 106.36729483 3.38821536 102.18047988 3.37324238 C68.12031027 3.25141447 34.06015166 3.12674882 0 3 C0 2.01 0 1.02 0 0 Z " fill="#473752" transform="translate(0,32)"/>
<path d="M0 0 C2.15098377 0.00085848 4.30196735 0.00132587 6.45295125 0.00170863 C46.60430243 0.00994689 86.75551626 0.11907662 126.90671301 0.22172481 C138.13119411 0.25038769 149.35567762 0.27805325 160.5801613 0.30568486 C180.58025264 0.35494443 200.58034206 0.40493886 220.58043033 0.45542777 C239.9531507 0.50433127 259.32587193 0.55286856 278.69859439 0.60093558 C279.90241039 0.60392257 281.10622638 0.60690957 282.34652165 0.60998708 C288.38860363 0.62497695 294.43068564 0.63995985 300.47276765 0.65493929 C350.21747954 0.77827462 399.96218836 0.90281607 449.70689517 1.02818167 C449.70689517 2.01818167 449.70689517 3.00818167 449.70689517 4.02818167 C405.35688252 4.14118414 361.00686623 4.25268737 316.65683109 4.35653555 C315.99587418 4.35808335 315.33491728 4.35963114 314.65393138 4.36122584 C300.27458938 4.39488993 285.89524679 4.42829315 271.51590357 4.46142927 C264.45985704 4.47769098 257.40381064 4.49401008 250.34776431 4.51035941 C249.29476475 4.51279781 249.29476475 4.51279781 248.22049246 4.51528547 C225.64387661 4.56759225 203.06727207 4.6236561 180.49067045 4.68176024 C157.20589126 4.74166645 133.92110561 4.79759921 110.63630566 4.84883276 C96.95034335 4.87895329 83.26439198 4.91088913 69.57844859 4.94871581 C13.27785454 5.10328164 -43.00085044 5.10739228 -99.29310483 4.02818167 C-99.29310483 3.03818167 -99.29310483 2.04818167 -99.29310483 1.02818167 C-91.07997499 0.89117503 -82.86676723 0.76088673 -74.65342969 0.63703024 C-70.83047194 0.5792145 -67.0075585 0.51987855 -63.18470639 0.45542777 C-42.12313483 0.10211127 -21.06443879 -0.009177 0 0 Z " fill="#4B3849" transform="translate(99.29310482740402,62.97181832790375)"/>
<path d="M0 0 C181.17 0 362.34 0 549 0 C549 0.99 549 1.98 549 3 C472.16895766 3.76708037 395.34451449 4.15658725 300.4403201 4.12946078 C289.17537909 4.12501494 277.91044863 4.12580225 266.64550781 4.13037109 C189.83722722 4.16070468 113.03595545 3.90257239 0 3 C0 2.01 0 1.02 0 0 Z " fill="#3F2E48" transform="translate(0,54)"/>
<path d="M0 0 C181.17 0 362.34 0 549 0 C549 0.99 549 1.98 549 3 C529.81558018 3.1338446 510.63113951 3.26425687 491.44667244 3.39115143 C482.52807688 3.45021352 473.6094898 3.51020315 464.69091797 3.57275391 C380.73326215 4.16004416 296.7832887 3.99131485 165.47066319 3.55461836 C152.8186603 3.51154345 140.1666552 3.46916685 127.51464844 3.42724609 C126.61321013 3.4242591 125.71177182 3.4212721 124.7830172 3.41819459 C120.25713124 3.40320119 115.73124524 3.388219 111.20535922 3.37324238 C74.13690024 3.2505647 37.06844796 3.12596117 0 3 C0 2.01 0 1.02 0 0 Z " fill="#403048" transform="translate(0,40)"/>
<path d="M0 0 C181.17 0 362.34 0 549 0 C549 0.99 549 1.98 549 3 C475.86345302 4.07797549 402.73231105 4.04964697 329.58984375 3.87890625 C327.80484289 3.87475957 327.80484289 3.87475957 325.9837814 3.87052912 C295.21395734 3.79876897 264.44417039 3.7147988 233.67438948 3.62664449 C215.80694064 3.5755687 197.93948509 3.52778947 180.07202148 3.48217773 C178.79937917 3.47892802 177.52673685 3.4756783 176.21552961 3.4723301 C169.82605635 3.45603114 163.43658295 3.43978538 157.04710948 3.42356598 C104.69804969 3.29061236 52.3490178 3.14852074 0 3 C0 2.01 0 1.02 0 0 Z " fill="#42354A" transform="translate(0,0)"/>
<path d="M0 0 C181.17 0 362.34 0 549 0 C549 0.99 549 1.98 549 3 C367.83 3 186.66 3 0 3 C0 2.01 0 1.02 0 0 Z " fill="#55504D" transform="translate(0,76)"/>
<path d="M0 0 C181.17 0 362.34 0 549 0 C549 0.99 549 1.98 549 3 C367.83 3 186.66 3 0 3 C0 2.01 0 1.02 0 0 Z " fill="#AA9F99" transform="translate(0,73)"/>
<path d="M0 0 C181.17 0 362.34 0 549 0 C549 0.99 549 1.98 549 3 C367.83 3 186.66 3 0 3 C0 2.01 0 1.02 0 0 Z " fill="#433648" transform="translate(0,12)"/>
<path d="M0 0 C181.17 0 362.34 0 549 0 C549 0.99 549 1.98 549 3 C367.83 3 186.66 3 0 3 C0 2.01 0 1.02 0 0 Z " fill="#876E91" transform="translate(0,9)"/>
<path d="M0 0 C181.17 0 362.34 0 549 0 C549 0.99 549 1.98 549 3 C367.83 3 186.66 3 0 3 C0 2.01 0 1.02 0 0 Z " fill="#7E5F8C" transform="translate(0,57)"/>
<path d="M0 0 C181.17 0 362.34 0 549 0 C549 0.99 549 1.98 549 3 C367.83 3 186.66 3 0 3 C0 2.01 0 1.02 0 0 Z " fill="#81648D" transform="translate(0,29)"/>
<path d="M0 0 C181.17 0 362.34 0 549 0 C549 0.99 549 1.98 549 3 C367.83 3 186.66 3 0 3 C0 2.01 0 1.02 0 0 Z " fill="#876D8F" transform="translate(0,19)"/>
<path d="M0 0 C181.17 0 362.34 0 549 0 C549 0.99 549 1.98 549 3 C367.83 3 186.66 3 0 3 C0 2.01 0 1.02 0 0 Z " fill="#8D7D98" transform="translate(0,67)"/>
<path d="M0 0 C52.32061853 -0.02317704 104.64123652 -0.04065237 156.96185922 -0.05106533 C163.21871345 -0.05231519 169.47556766 -0.0536096 175.73242188 -0.05493164 C176.97741251 -0.05519395 178.22240315 -0.05545626 179.50512077 -0.05572652 C196.90371003 -0.0594842 214.30229697 -0.06563027 231.70088473 -0.07373433 C261.69381865 -0.08770205 291.68675013 -0.09693877 321.6796875 -0.09765625 C322.84565267 -0.09769482 324.01161785 -0.09773339 325.2129153 -0.09777313 C399.81300865 -0.09942441 474.40462649 0.10912841 549 1 C549 1.66 549 2.32 549 3 C367.83 3 186.66 3 0 3 C0 2.01 0 1.02 0 0 Z " fill="#775784" transform="translate(0,51)"/>
<path d="M0 0 C181.17 0 362.34 0 549 0 C549 0.66 549 1.32 549 2 C471.73625912 3.00424943 394.48157507 3.16284001 317.21285731 3.13057256 C306.5769254 3.12615173 295.94099485 3.12366363 285.30506209 3.12257662 C201.65870082 3.11375948 118.01484653 3.01806786 0 2 C0 1.34 0 0.68 0 0 Z " fill="#6B5875" transform="translate(0,3)"/>
</svg>
